<?xml version="1.0" encoding="UTF-8"?>
<svg width="18px" height="18px" viewBox="0 0 18 18" version="1.1" xmlns="http://www.w3.org/2000/svg" xmlns:xlink="http://www.w3.org/1999/xlink">
    <!-- Generator: sketchtool 57.1 (101010) - https://sketch.com -->
    <title>48C7FBE3-D1EB-4BB2-8655-B3CAEEA7C483</title>
    <desc>Created with sketchtool.</desc>
    <g id="Desktop-&amp;-Mobile" stroke="none" stroke-width="1" fill="none" fill-rule="evenodd">
        <g id="Icons-Kit" transform="translate(-183.000000, -80.000000)" fill="#FFFFFF" fill-rule="nonzero">
            <g id="search-icon" transform="translate(183.000000, 80.000000)">
                <path d="M8,3.55271368e-15 C12.4097561,3.55271368e-15 16,3.5902439 16,8 C16,9.89172411 15.3392907,11.6326341 14.2366101,13.0039921 C14.5005611,13.0213759 14.7552605,13.1358528 14.9465649,13.3461538 L17.6564885,16.0769231 C18.1145038,16.5384615 18.1145038,17.2692308 17.6564885,17.6923077 C17.4656489,17.9230769 17.1603053,18 16.8549618,18 C16.5496183,18 16.2824427,17.8846154 16.0534351,17.6538462 L13.3435115,14.9615385 C13.1391702,14.7556253 13.0259948,14.496123 13.0039852,14.2342642 C11.634317,15.3386519 9.89263842,16 8,16 C3.5902439,16 0,12.4097561 0,8 C0,3.5902439 3.5902439,3.55271368e-15 8,3.55271368e-15 Z M8,2.34146341 C4.87804878,2.34146341 2.34146341,4.87804878 2.34146341,8 C2.34146341,11.1219512 4.87804878,13.6585366 8,13.6585366 C11.1219512,13.6585366 13.6585366,11.1219512 13.6585366,8 C13.6585366,4.87804878 11.1219512,2.34146341 8,2.34146341 Z" id="icons/search-icon"></path>
            </g>
        </g>
    </g>
</svg>